[img]http://img824.imageshack.us/img824/5896/asterixetobelixauservicc.jpg[/img]

[b][size=200][color=black]PLOT[/color][/size][/b]

[code]Asterix crosses the channel to help second-cousin Anticlimax 
face down Julius Caesar and invading Romans. [/code]

[b][size=200][color=black]IMDB[/color][/size][/b]

[code]http://www.imdb.com/title/tt1597522/[/code]

[b][size=200][color=black]MOVIE INFO[/color][/size][/b]

[code]Asterix And Obelix God Save Britannia [2012] BRRip x264 AAC-V3nom

Format                                   : MPEG-4
Format profile                           : Base Media / Version 2
Codec ID                                 : mp42
File size                                : 301 MiB
Duration                                 : 1h 50mn
Overall bit rate mode                    : Variable
Overall bit rate                         : 382 Kbps
Encoded date                             : UTC 2013-02-21 09:53:10
Tagged date                              : UTC 2013-02-21 10:28:33

Video
ID                                       : 1
Format                                   : AVC
Format/Info                              : Advanced Video Codec
Format profile                           : Main@L2.1
Format settings, CABAC                   : Yes
Format settings, ReFrames                : 4 frames
Codec ID                                 : avc1
Codec ID/Info                            : Advanced Video Coding
Duration                                 : 1h 50mn
Bit rate mode                            : Variable
Bit rate                                 : 280 Kbps
Width                                    : 640 pixels
Height                                   : 256 pixels
Display aspect ratio                     : 2.40:1
Original display aspect ratio            : 2.40:1
Frame rate mode                          : Variable
Frame rate                               : 23.976 fps
Minimum frame rate                       : 23.810 fps
Maximum frame rate                       : 24.390 fps
Color space                              : YUV
Chroma subsampling                       : 4:2:0
Bit depth                                : 8 bits
Scan type                                : Progressive
Bits/(Pixel*Frame)                       : 0.071
Stream size                              : 221 MiB (73%)
Writing library                          : x264 core 112


Audio
ID                                       : 2
Format                                   : AAC
Format/Info                              : Advanced Audio Codec
Format profile                           : LC
Codec ID                                 : 40
Duration                                 : 1h 50mn
Bit rate mode                            : Variable
Bit rate                                 : 96.0 Kbps
Maximum bit rate                         : 175 Kbps
Channel(s)                               : 2 channels
Channel positions                        : Front: L R
Sampling rate                            : 48.0 KHz
Compression mode                         : Lossy
Delay relative to video                  : 83ms
Stream size                              : 75.7 MiB (25%)
Language                                 : French
Encoded date                             : UTC 2013-02-21 09:53:10
Tagged date                              : UTC 2013-02-21 10:28:28[/code]

[b][size=200][color=black]SOURCE[/color][/size][/b]

[code]Asterix And Obelix God Save Britannia 2012 720p BRRIP x264 - UPX(Thanks)[/code]

[b][size=200][color=black]SCREENSHOTS[/color][/size][/b]

[img]http://img197.imageshack.us/img197/7364/asterixandobelixgodsave.jpg[/img]

[img]http://kastatic.com/i2/users/133df62bbf28e62494bb17fe11078f1a.gif[/img][img]http://kastatic.com/i2/users/133df62bbf28e62494bb17fe11078f1a.gif[/img]